#!OML:ASF F:\twosubjects\two\Thursday\Session 1\Rory.ASF
:FULLY-SPECIFIED
:DEGREES
521
root 8.3962 14.6222 11.4125 -152.84 -18.6801 169.234
lowerback 20.1746 1.63968 8.54482
upperback 5.87684 2.97804 6.6399
thorax -4.72971 0.89342 1.64644
lowerneck -9.67101 -11.57 -6.91603
upperneck -6.3411 -15.0517 19.446
head 1.82977 -7.44496 6.08975
rclavicle -4.13472e-014 0
rhumerus 48.4358 -22.727 -101.147
rradius 101.468
rwrist -85.5371
rhand -31.8601 -11.2624
rfingers 7.12502
rthumb -5.11368 -41.1807
lclavicle -4.13472e-014 0
lhumerus -13.843 -59.5562 103.738
lradius 86.5099
lwrist 10.1086
lhand -33.1601 58.8104
lfingers 7.12502
lthumb -6.36875 -991.305
rfemur -4.86797 14.1104 -15.0028
rtibia 48.7785
rfoot -11.9925 -14.8226
rtoes -27.7875
lfemur -74.9628 15.189 -21.5084
ltibia 77.3054
lfoot -18.8018 -2.8594
ltoes -5.76741
522
root 8.3835 14.6455 11.3835 -153.044 -18.2392 169.244
lowerback 20.4898 1.79819 8.07587
upperback 5.96211 3.1061 6.73615
thorax -4.83509 0.945144 1.97851
lowerneck -9.57176 -11.5685 -7.38147
upperneck -6.08772 -15.0455 19.7486
head 1.95431 -7.41705 6.24657
rclavicle 3.18055e-015 -4.13472e-014
rhumerus 48.3221 -22.6157 -100.948
rradius 101.327
rwrist -85.9789
rhand -32.197 -10.2495
rfingers 7.12502
rthumb -5.43896 -40.1597
lclavicle 3.18055e-015 -4.13472e-014
lhumerus -13.8098 -59.3971 103.992
lradius 86.3526
lwrist 10.1674
lhand -32.4093 58.0722
lfingers 7.12502
lthumb -5.64395 -992.023
rfemur -4.57339 14.6342 -15.1094
rtibia 48.2957
rfoot -12.1836 -14.9229
rtoes -26.8998
lfemur -74.4822 15.6823 -21.6643
ltibia 77.204
lfoot -19.1813 -3.08671
ltoes -5.23082
523
root 8.36553 14.6611 11.3753 -152.786 -18.0895 169.13
lowerback 20.5455 1.81893 7.89188
upperback 5.79039 3.14683 6.80632
thorax -5.06909 0.964813 2.14674
lowerneck -9.21023 -11.5834 -7.78016
upperneck -6.07972 -15.0311 19.857
head 1.93872 -7.4123 6.35963
rclavicle -3.18055e-015 6.36111e-014
rhumerus 48.1435 -22.6292 -100.708
rradius 101.299
rwrist -86.7315
rhand -32.7105 -9.60445
rfingers 7.12502
rthumb -5.9347 -39.5013
lclavicle -3.18055e-015 6.36111e-014
lhumerus -14.368 -59.1155 104.898
lradius 86.2312
lwrist 9.6945
lhand -32.4691 58.5297
lfingers 7.12502
lthumb -5.70162 -991.567
rfemur -4.6231 14.6332 -15.3626
rtibia 47.8888
rfoot -12.1378 -14.9434
rtoes -26.2431
lfemur -74.5915 15.6654 -21.9217
ltibia 77.0779
lfoot -19.3961 -3.0796
ltoes -4.74247
524
root 8.34392 14.677 11.3695 -152.311 -17.7085 169.453
lowerback 20.2613 2.05377 7.89705
upperback 5.53717 3.48854 6.88453
thorax -5.19824 1.13822 2.15035
lowerneck -8.70139 -11.6295 -7.73819
upperneck -6.21063 -15.0711 19.6667
head 1.80114 -7.45575 6.32518
rclavicle -1.04958e-013 -5.08889e-014
rhumerus 48.2297 -22.9437 -100.861
rradius 101.307
rwrist -87.6555
rhand -33.3064 -9.63822
rfingers 7.12502
rthumb -6.51004 -39.5182
lclavicle -1.04958e-013 -5.08889e-014
lhumerus -15.3906 -59.0802 106.048
lradius 86.2484
lwrist 9.468
lhand -33.3061 58.0264
lfingers 7.12502
lthumb -6.50972 -992.094
rfemur -5.23727 14.8951 -15.4411
rtibia 47.3213
rfoot -11.7718 -15.1136
rtoes -26.1522
lfemur -75.1227 15.9509 -21.9518
ltibia 76.9371
lfoot -19.3756 -2.94515
ltoes -5.06377
525
root 8.33204 14.6974 11.3648 -151.693 -16.7116 169.985
lowerback 19.8107 2.52051 7.50208
upperback 5.40859 4.01882 6.90777
thorax -5.13006 1.4139 2.2776
lowerneck -8.69368 -11.6921 -7.63507
upperneck -6.15644 -15.1612 19.56
head 1.80857 -7.49626 6.26759
rclavicle -1.27222e-014 -2.54444e-014
rhumerus 48.4852 -23.1003 -101.227
rradius 101.224
rwrist -88.6784
rhand -33.887 -9.95576
rfingers 7.12502
rthumb -7.07053 -39.8177
lclavicle -1.27222e-014 -2.54444e-014
lhumerus -15.5805 -58.9668 106.456
lradius 86.1176
lwrist 9.26827
lhand -32.901 57.5083
lfingers 7.12502
lthumb -6.11867 -992.6
rfemur -6.57435 15.4573 -15.8408
rtibia 46.816
rfoot -11.1061 -15.3042
rtoes -26.921
lfemur -75.8702 16.8455 -22.1544
ltibia 76.7956
lfoot -19.2024 -2.67375
ltoes -5.16193
526
root 8.29068 14.7335 11.3347 -152.64 -18.0587 168.628
lowerback 21.0986 1.67545 8.08247
upperback 5.63582 3.09298 6.67973
thorax -5.50843 0.92934 1.91001
lowerneck -8.88749 -11.7927 -7.43975
upperneck -6.12766 -15.3111 19.5295
head 1.84899 -7.56336 6.20194
rclavicle -6.36111e-015 2.22639e-014
rhumerus 48.4652 -23.4845 -101.369
rradius 101.521
rwrist -89.9866
rhand -34.7379 -10.0035
rfingers 7.12502
rthumb -7.89181 -39.8362
lclavicle -6.36111e-015 2.22639e-014
lhumerus -15.2509 -59.1429 106.323
lradius 85.9598
lwrist 9.08266
lhand -32.3081 58.077
lfingers 7.12502
lthumb -5.54621 -992.016
rfemur -3.36664 15.1988 -15.5293
rtibia 45.9831
rfoot -11.0647 -15.8853
rtoes -27.7628
lfemur -73.9438 15.1225 -22.5159
ltibia 76.5483
lfoot -19.3996 -2.61187
ltoes -3.26111
527
root 8.25725 14.7389 11.3212 -152.156 -18.3205 168.621
lowerback 20.5763 1.56962 8.48687
upperback 5.49077 3.0123 6.70949
thorax -5.37124 0.89939 1.74212
lowerneck -8.83052 -11.825 -7.48464
upperneck -5.98622 -15.3637 19.5317
head 1.89175 -7.57849 6.20243
rclavicle 3.49861e-014 -4.45278e-014
rhumerus 48.2739 -23.8912 -101.307
rradius 101.978
rwrist -91.0829
rhand -35.4924 -9.93602
rfingers 7.12502
rthumb -8.62002 -39.74
lclavicle 3.49861e-014 -4.45278e-014
lhumerus -15.4133 -59.3987 106.639
lradius 85.8921
lwrist 9.57502
lhand -33.123 58.4262
lfingers 7.12502
lthumb -6.33292 -991.688
rfemur -3.28078 14.8198 -15.4978
rtibia 45.3313
rfoot -10.6451 -15.9955
rtoes -28.5364
lfemur -74.4205 14.8614 -22.6603
ltibia 76.4491
lfoot -19.3722 -2.66675
ltoes -1.18533
